<?xml version="1.0" standalone="no"?>
<!DOCTYPE svg PUBLIC "-//W3C//DTD SVG 20010904//EN"
 "http://www.w3.org/TR/2001/REC-SVG-20010904/DTD/svg10.dtd">
<svg version="1.0" xmlns="http://www.w3.org/2000/svg"
 width="1612.000000pt" height="1612.000000pt" viewBox="0 0 1612.000000 1612.000000"
 preserveAspectRatio="xMidYMid meet">
<metadata>
Created by potrace 1.11, written by Peter Selinger 2001-2013
</metadata>
<g transform="translate(0.000000,1612.000000) scale(0.100000,-0.100000)"
fill="#000000" stroke="none">
<path d="M7805 11948 c-82 -18 -85 -19 -120 -33 -11 -4 -47 -17 -80 -29 -60
-22 -191 -94 -217 -119 -7 -6 -31 -25 -53 -42 -85 -64 -255 -259 -255 -293 0
-6 -4 -12 -8 -14 -9 -3 -72 -133 -90 -183 -15 -43 -23 -70 -23 -72 0 -2 -5
-17 -10 -35 -5 -18 -12 -49 -15 -68 -3 -19 -12 -73 -21 -120 -43 -239 -5 -406
112 -486 77 -53 202 -65 285 -26 57 26 68 36 112 94 53 70 70 132 73 268 1 64
6 126 9 137 4 12 9 32 12 45 35 159 153 322 279 386 76 38 113 45 245 45 129
0 175 -7 266 -42 267 -104 435 -363 392 -603 -24 -129 -104 -308 -183 -406
-53 -66 -158 -182 -203 -222 -27 -25 -86 -79 -132 -120 -236 -215 -276 -258
-319 -343 -36 -72 -66 -160 -75 -222 -15 -94 -19 -145 -20 -240 -1 -60 -5
-116 -9 -122 -5 -7 -5 -13 0 -13 12 0 10 -274 -2 -282 -7 -5 -7 -8 0 -8 6 0
10 -41 10 -102 l-1 -102 -39 -17 c-22 -10 -67 -30 -100 -44 -33 -14 -73 -32
-90 -40 -65 -30 -124 -55 -129 -55 -3 0 -34 -13 -68 -28 -35 -16 -85 -37 -113
-47 -27 -10 -55 -22 -60 -26 -6 -4 -35 -17 -65 -28 -30 -12 -64 -26 -75 -31
-11 -5 -76 -32 -145 -60 -69 -28 -138 -57 -155 -64 -16 -7 -57 -24 -90 -36
-33 -13 -73 -29 -90 -36 -16 -7 -55 -22 -85 -34 -30 -12 -66 -27 -80 -33 -14
-5 -30 -11 -36 -12 -6 -2 -42 -17 -81 -34 -39 -17 -76 -31 -82 -31 -6 0 -19
-4 -29 -10 -26 -15 -325 -132 -339 -133 -7 0 -13 -4 -13 -9 0 -4 -6 -8 -14 -8
-8 0 -47 -13 -88 -29 -40 -15 -138 -54 -218 -84 -80 -31 -158 -62 -175 -68
-16 -7 -35 -13 -40 -14 -6 -2 -33 -12 -60 -23 -28 -11 -131 -51 -230 -88 -99
-37 -191 -72 -205 -77 -14 -6 -27 -11 -30 -12 -10 -4 -46 -17 -65 -25 -11 -4
-65 -25 -120 -45 -197 -73 -260 -97 -280 -105 -11 -5 -47 -18 -80 -30 -33 -13
-69 -26 -80 -31 -11 -5 -58 -22 -105 -39 -47 -17 -92 -33 -100 -37 -8 -3 -17
-7 -20 -8 -3 -1 -12 -5 -20 -8 -8 -3 -100 -38 -205 -77 -104 -39 -204 -78
-222 -86 -17 -7 -35 -14 -39 -14 -4 0 -67 -23 -138 -52 -72 -28 -137 -51 -143
-51 -7 0 -13 -4 -13 -9 0 -4 -6 -8 -14 -8 -17 0 -197 -68 -211 -80 -5 -5 -14
-9 -20 -9 -29 -4 -85 -23 -90 -31 -3 -6 -12 -10 -19 -10 -8 0 -31 -8 -52 -17
-22 -9 -41 -17 -44 -18 -3 0 -39 -14 -80 -30 -41 -16 -77 -30 -80 -31 -3 0
-18 -6 -35 -13 -16 -6 -88 -35 -160 -63 -147 -57 -153 -60 -215 -86 -84 -36
-258 -102 -269 -102 -6 0 -11 -4 -11 -10 0 -5 -6 -10 -14 -10 -7 0 -31 -8 -52
-17 -22 -9 -41 -17 -44 -18 -9 -3 -44 -17 -65 -25 -11 -5 -52 -23 -92 -39 -39
-17 -74 -31 -77 -31 -4 0 -25 -9 -49 -19 -23 -11 -76 -34 -117 -51 -41 -17
-84 -35 -95 -40 -11 -4 -45 -18 -75 -30 -30 -13 -77 -33 -105 -45 -27 -13 -79
-35 -115 -50 -393 -164 -505 -227 -624 -352 -105 -109 -216 -289 -242 -392 -2
-9 -11 -41 -20 -71 -25 -88 -26 -279 -1 -365 23 -79 33 -105 39 -105 4 0 8 -8
8 -19 0 -10 7 -24 15 -31 8 -7 15 -18 15 -24 0 -23 132 -156 198 -199 114 -75
257 -123 432 -143 73 -9 13791 -11 13796 -2 2 3 17 3 32 -2 16 -4 36 -4 45 2
11 6 17 5 17 -1 0 -6 11 -6 28 -2 15 5 36 5 47 1 11 -4 29 -5 40 -3 22 4 79 4
142 0 22 -1 39 1 37 4 -2 3 10 6 26 5 17 -1 30 -4 30 -8 0 -4 6 -5 14 -2 23 9
117 11 122 2 3 -5 10 -5 17 -1 6 3 33 5 61 4 69 -3 58 -3 181 3 114 6 149 10
183 20 11 4 29 9 40 11 55 10 235 108 278 150 7 6 25 22 40 36 85 71 170 218
199 342 14 59 14 215 1 277 -20 93 -32 133 -59 195 -17 39 -41 84 -54 102 -13
17 -23 36 -23 40 0 17 -35 58 -136 159 -149 149 -330 264 -559 354 -60 24
-173 70 -250 103 -77 33 -210 89 -295 124 -85 36 -166 70 -180 76 -14 6 -27
11 -30 12 -6 2 -25 10 -120 50 -36 15 -144 59 -240 97 -96 38 -188 75 -205 82
-32 15 -209 84 -345 136 -47 18 -94 37 -105 41 -47 20 -282 111 -305 119 -14
4 -79 29 -145 55 -66 25 -192 73 -280 106 -88 33 -169 64 -180 69 -26 11
-1017 381 -1030 384 -5 2 -23 9 -40 15 -16 7 -34 14 -40 15 -13 4 -45 16 -70
26 -11 5 -58 23 -105 40 -47 17 -121 45 -165 62 -44 16 -105 39 -135 50 -30
12 -68 27 -85 33 -16 7 -48 18 -70 25 -22 7 -46 18 -54 24 -8 6 -15 10 -15 8
-1 -2 -8 -1 -16 2 -37 13 -308 116 -335 127 -16 7 -32 13 -35 13 -3 1 -18 6
-35 13 -59 22 -70 26 -75 27 -14 4 -108 42 -130 53 -14 7 -31 13 -38 13 -7 0
-20 4 -30 9 -44 22 -136 56 -144 53 -5 -1 -8 3 -8 8 0 6 -6 10 -12 10 -10 0
-239 87 -343 130 -11 4 -36 15 -55 23 -19 8 -89 36 -155 61 -66 26 -132 54
-147 62 -15 8 -31 15 -35 16 -8 0 -34 10 -80 30 -16 6 -32 12 -38 14 -5 2 -34
12 -64 22 -68 23 -133 20 -200 -8 -66 -29 -136 -105 -155 -170 -17 -58 -13
-151 9 -204 24 -57 102 -130 166 -154 83 -32 400 -161 438 -178 18 -9 39 -17
45 -18 6 -1 28 -10 50 -19 21 -9 41 -17 43 -17 3 0 19 -6 36 -14 32 -14 70
-29 387 -152 91 -36 174 -69 185 -74 11 -5 58 -23 105 -40 47 -17 94 -35 105
-40 11 -5 81 -32 155 -60 74 -28 144 -55 155 -60 11 -5 65 -25 120 -45 55 -20
120 -45 145 -55 25 -11 90 -35 145 -55 55 -20 109 -40 120 -45 11 -5 76 -30
145 -55 69 -26 132 -49 140 -52 8 -4 17 -7 20 -8 3 -1 12 -5 20 -8 8 -4 101
-38 205 -77 105 -39 199 -75 210 -80 11 -5 47 -18 80 -30 33 -12 87 -32 120
-45 33 -13 116 -44 185 -70 69 -25 134 -50 145 -55 11 -5 58 -23 105 -40 47
-17 94 -35 105 -40 11 -5 83 -32 160 -60 77 -29 144 -54 150 -58 5 -4 15 -7
21 -8 5 -1 71 -26 145 -55 74 -29 136 -54 139 -54 3 0 50 -18 105 -40 55 -22
102 -40 105 -40 3 0 10 -3 15 -7 6 -3 48 -20 95 -38 47 -17 97 -38 113 -46 15
-8 27 -13 27 -10 0 5 29 -6 110 -41 19 -8 44 -19 55 -24 11 -4 56 -22 100 -39
111 -44 165 -65 200 -80 17 -7 35 -14 41 -15 6 -2 27 -10 45 -18 39 -18 112
-48 271 -112 62 -25 127 -52 143 -60 17 -7 82 -34 145 -60 63 -26 120 -51 125
-55 6 -5 13 -9 17 -9 32 -5 341 -141 393 -173 59 -36 133 -95 156 -123 9 -11
27 -31 39 -45 19 -21 52 -81 55 -100 0 -3 3 -9 6 -15 10 -17 3 -100 -12 -133
-12 -27 -23 -35 -64 -47 -57 -16 -99 -25 -145 -31 -73 -9 -320 -12 -326 -3 -2
4 -19 3 -38 -1 -19 -4 -37 -5 -40 -2 -3 2 -3199 5 -7103 6 -6746 1 -7100 2
-7130 19 -46 25 -65 58 -70 127 -10 111 60 208 235 325 125 84 258 149 493
240 79 30 157 62 172 70 16 8 37 15 48 15 10 0 19 5 19 12 0 6 3 9 6 6 6 -7
57 15 229 97 61 29 214 96 340 150 127 53 243 103 259 111 16 8 33 14 39 14 5
0 23 7 40 15 33 15 374 154 392 159 6 2 21 8 35 13 14 6 57 23 95 38 39 15 84
33 100 40 17 7 98 38 180 69 83 32 158 61 167 67 10 5 23 9 29 9 6 0 25 6 42
14 18 7 59 24 92 36 33 12 74 28 90 35 17 7 55 21 85 31 30 11 58 24 62 29 4
6 8 7 8 2 0 -4 13 -1 30 8 16 8 31 15 32 15 3 -1 9 1 103 35 39 14 75 27 80
28 6 2 21 9 35 17 14 7 26 12 28 11 3 -3 14 1 102 34 48 18 74 28 80 30 6 2
30 11 75 28 17 7 32 12 35 13 3 0 12 4 20 7 8 4 121 45 250 92 129 48 258 95
285 105 107 40 254 94 340 125 50 18 122 45 160 60 39 14 78 28 87 30 9 2 26
9 38 15 12 6 29 13 38 15 24 5 233 84 254 95 10 6 23 10 29 10 6 0 25 6 42 14
18 8 84 33 147 56 63 23 127 48 142 56 15 8 30 14 33 13 5 -1 88 29 140 51 11
5 52 21 90 35 39 15 97 37 130 50 33 13 98 38 145 56 47 17 99 38 115 45 109
45 313 124 323 124 7 0 12 5 12 12 0 6 3 9 6 6 3 -3 46 12 96 33 51 21 95 39
99 39 4 0 36 13 71 29 35 16 119 52 188 80 69 29 143 60 165 70 22 11 76 34
120 52 44 18 96 43 116 54 48 26 120 91 112 99 -3 3 -1 6 5 6 16 0 59 88 77
156 27 105 30 193 24 759 -2 173 0 195 19 245 17 44 33 64 74 95 29 22 55 42
58 45 3 3 32 27 65 55 154 128 354 347 453 499 26 39 49 73 52 76 3 3 28 50
56 105 52 101 118 280 129 345 3 19 8 42 10 50 5 17 16 115 18 170 1 19 -2 38
-8 42 -6 5 -6 8 1 8 6 0 10 12 8 28 -11 105 -17 144 -30 200 -16 67 -63 204
-73 212 -4 3 -12 17 -18 32 -43 97 -181 262 -298 354 -27 21 -51 42 -53 47 -2
4 -8 7 -13 7 -6 0 -35 16 -65 35 -30 19 -61 35 -69 35 -8 0 -15 4 -15 9 0 7
-169 77 -210 86 -8 2 -30 8 -48 14 -18 5 -35 10 -37 10 -3 0 -15 3 -28 6 -69
15 -108 18 -267 19 -139 2 -191 -1 -255 -16z"/>
</g>
</svg>
